<svg width="100" height="100" viewBox="0 0 100 100" fill="none" xmlns="http://www.w3.org/2000/svg">
<g clip-path="url(#clip0_100_46)">
<rect width="100" height="100" rx="50" fill="#171717"/>
<path d="M81.4384 83.543C77.2489 93.548 69.7039 99.0033 58.9778 101C68.7298 92.2717 71.3311 81.9647 67.7515 70.0105C65.2597 73.0422 62.7856 76.0506 60.3114 79.0637C59.9956 78.878 59.6841 78.6877 59.3683 78.502C60.6843 72.0905 60.3071 65.7955 57.9689 59.8196C55.6702 53.9374 53.003 48.2223 49.7963 42.5671C49.4585 44.1363 49.1514 45.7147 48.7829 47.2747C47.0809 54.494 43.0537 60.3294 38.8292 66.0545C35.1443 71.0499 31.8892 76.2543 31.2225 82.8281C30.5513 89.4764 32.4509 95.0247 37.1184 99.4994C37.4693 99.8383 38.0396 99.9219 38.2589 100.391C24.8219 99.6433 14.7192 86.4816 16.1319 72.1361C16.4917 68.4963 17.3647 64.9168 17.8209 61.2816C18.6412 54.7123 19.3211 48.1199 20.0801 41.3371C23.6422 46.9268 27.3008 52.6745 31.2445 58.8677C30.9681 33.5653 33.451 9.93874 54.4069 -5.96247C54.1086 -6.09247 54.7052 -5.83247 54.4069 -5.96247C49.7329 4.31718 49.0731 16.3418 55.9906 25.7558C57.39 27.6594 58.8946 29.4746 60.4081 31.2805C65.4398 37.2789 69.1028 44.0013 70.5329 52.0333C72.6956 45.8678 71.4453 39.9246 69.4011 33.4579C70.3092 34.1497 70.818 34.4793 71.2567 34.8878C71.7743 35.3753 72.2349 35.9278 72.7131 36.457C83.8557 48.8069 87.6325 68.742 81.4341 83.5426L81.4384 83.543Z" fill="url(#paint0_linear_100_46)"/>
</g>
<defs>
<linearGradient id="paint0_linear_100_46" x1="50.2031" y1="-6" x2="50.2031" y2="101" gradientUnits="userSpaceOnUse">
<stop stop-color="#FFD153"/>
<stop offset="0.671828" stop-color="#FF6900"/>
<stop offset="1" stop-color="#9D3617"/>
</linearGradient>
<clipPath id="clip0_100_46">
<rect width="100" height="100" rx="50" fill="white"/>
</clipPath>
</defs>
</svg>
