<svg width="166" height="42" viewBox="0 0 166 42" fill="none" xmlns="http://www.w3.org/2000/svg">
<path d="M25.8286 35.1453C24.175 39.0739 21.197 41.216 16.9634 42C20.8125 38.5728 21.8392 34.5256 20.4264 29.8316C19.4429 31.0221 18.4663 32.2033 17.4898 33.3865C17.3651 33.3136 17.2422 33.2388 17.1175 33.1659C17.637 30.6484 17.488 28.1766 16.5652 25.8301C15.6578 23.5203 14.6051 21.2762 13.3394 19.0557C13.2061 19.6718 13.0849 20.2916 12.9394 20.9042C12.2676 23.7389 10.6781 26.0302 9.01071 28.2783C7.55628 30.2398 6.2715 32.2833 6.00833 34.8646C5.74342 37.4751 6.49317 39.6537 8.33545 41.4108C8.47396 41.5439 8.69905 41.5767 8.78562 41.7608C3.48202 41.4673 -0.505541 36.2992 0.0520791 30.6663C0.19406 29.2371 0.538644 27.8315 0.718696 26.4041C1.04248 23.8246 1.31085 21.2361 1.6104 18.5727C3.01638 20.7676 4.46043 23.0244 6.01702 25.4563C5.90794 15.521 6.88794 6.24379 15.1592 0C15.277 0.0510461 15.3947 0.100263 15.5125 0.151309C15.1575 0.92792 14.7731 1.69356 14.4511 2.48474C12.9862 6.08699 13.5317 9.40475 15.7843 12.4545C16.3367 13.202 16.9305 13.9148 17.5279 14.6239C19.5139 16.9792 20.9597 19.6188 21.5242 22.7727C22.3778 20.3517 21.8843 18.0181 21.0775 15.4788C21.4359 15.7505 21.6367 15.8799 21.8099 16.0403C22.0142 16.2317 22.196 16.4487 22.3847 16.6565C26.7827 21.5058 28.2734 29.3335 25.8269 35.1452L25.8286 35.1453Z" fill="url(#paint0_linear_97_40)"/>
<path d="M39 32.6163V9.5H47.9622C50.6563 9.5 52.7638 10.1512 54.2847 11.4535C55.8273 12.7558 56.5986 14.5574 56.5986 16.8581C56.5986 19.1806 55.8273 21.0039 54.2847 22.3279C52.7638 23.6302 50.6563 24.2814 47.9622 24.2814H43.2367V32.6163H39ZM43.2367 20.6023H47.7667C49.2007 20.6023 50.2979 20.2876 51.0583 19.6581C51.8404 19.0287 52.2315 18.0953 52.2315 16.8581C52.2315 15.6426 51.8404 14.731 51.0583 14.1233C50.2979 13.4938 49.2007 13.1791 47.7667 13.1791H43.2367V20.6023Z" fill="white"/>
<path d="M60.7395 37.5V34.2767H62.9557C63.5205 34.2767 63.9334 34.1899 64.1941 34.0163C64.4765 33.8426 64.7046 33.5496 64.8785 33.1372L65.3347 31.9326H64.1289L57.9368 15.2302H62.2387L66.6383 28.0256L70.7772 15.2302H75.1117L68.3004 34.4395C67.9311 35.5248 67.3879 36.3062 66.6709 36.7837C65.9757 37.2612 64.9871 37.5 63.7052 37.5H60.7395Z" fill="white"/>
<path d="M77.2728 32.6163V15.2302H81.1836L81.2814 18.6163C81.629 17.4442 82.1396 16.5868 82.8131 16.0442C83.4866 15.5016 84.3666 15.2302 85.4529 15.2302H87.0498V18.8116H85.4203C84.095 18.8116 83.0956 19.1155 82.422 19.7233C81.7702 20.3093 81.4443 21.2643 81.4443 22.5884V32.6163H77.2728Z" fill="white"/>
<path d="M96.4008 33.007C94.6844 33.007 93.1853 32.638 91.9034 31.9C90.6216 31.1403 89.6221 30.0876 88.9052 28.7419C88.1882 27.3744 87.8297 25.7682 87.8297 23.9233C87.8297 22.0783 88.1882 20.4829 88.9052 19.1372C89.6221 17.7698 90.6216 16.7171 91.9034 15.9791C93.1853 15.2194 94.6844 14.8395 96.4008 14.8395C98.1172 14.8395 99.6164 15.2194 100.898 15.9791C102.18 16.7171 103.169 17.7698 103.864 19.1372C104.581 20.4829 104.939 22.0783 104.939 23.9233C104.939 25.7682 104.581 27.3744 103.864 28.7419C103.169 30.0876 102.18 31.1403 100.898 31.9C99.6164 32.638 98.1172 33.007 96.4008 33.007ZM96.4008 29.6209C97.7479 29.6209 98.7908 29.1217 99.5295 28.1233C100.268 27.1248 100.638 25.7248 100.638 23.9233C100.638 22.1217 100.268 20.7217 99.5295 19.7233C98.7908 18.7248 97.7479 18.2256 96.4008 18.2256C95.0538 18.2256 94.0109 18.7248 93.2722 19.7233C92.5335 20.7217 92.1641 22.1217 92.1641 23.9233C92.1641 25.7248 92.5335 27.1248 93.2722 28.1233C94.0109 29.1217 95.0538 29.6209 96.4008 29.6209Z" fill="white"/>
<path d="M108.387 32.6163V9.5H117.35C120.044 9.5 122.151 10.1512 123.672 11.4535C125.215 12.7558 125.986 14.5574 125.986 16.8581C125.986 19.1806 125.215 21.0039 123.672 22.3279C122.151 23.6302 120.044 24.2814 117.35 24.2814H112.624V32.6163H108.387ZM112.624 20.6023H117.154C118.588 20.6023 119.685 20.2876 120.446 19.6581C121.228 19.0287 121.619 18.0953 121.619 16.8581C121.619 15.6426 121.228 14.731 120.446 14.1233C119.685 13.4938 118.588 13.1791 117.154 13.1791H112.624V20.6023Z" fill="white"/>
<path d="M132.245 32.6163C130.963 32.6163 129.942 32.2907 129.182 31.6395C128.443 30.9884 128.074 29.9465 128.074 28.514V9.5H132.245V28.0907C132.245 28.9589 132.68 29.393 133.549 29.393H134.82V32.6163H132.245Z" fill="white"/>
<path d="M144.847 33.007C143.13 33.007 141.631 32.638 140.349 31.9C139.067 31.1403 138.068 30.0876 137.351 28.7419C136.634 27.3744 136.275 25.7682 136.275 23.9233C136.275 22.0783 136.634 20.4829 137.351 19.1372C138.068 17.7698 139.067 16.7171 140.349 15.9791C141.631 15.2194 143.13 14.8395 144.847 14.8395C146.563 14.8395 148.062 15.2194 149.344 15.9791C150.626 16.7171 151.614 17.7698 152.31 19.1372C153.027 20.4829 153.385 22.0783 153.385 23.9233C153.385 25.7682 153.027 27.3744 152.31 28.7419C151.614 30.0876 150.626 31.1403 149.344 31.9C148.062 32.638 146.563 33.007 144.847 33.007ZM144.847 29.6209C146.194 29.6209 147.237 29.1217 147.975 28.1233C148.714 27.1248 149.083 25.7248 149.083 23.9233C149.083 22.1217 148.714 20.7217 147.975 19.7233C147.237 18.7248 146.194 18.2256 144.847 18.2256C143.5 18.2256 142.457 18.7248 141.718 19.7233C140.979 20.7217 140.61 22.1217 140.61 23.9233C140.61 25.7248 140.979 27.1248 141.718 28.1233C142.457 29.1217 143.5 29.6209 144.847 29.6209Z" fill="white"/>
<path d="M162.285 32.6163C160.547 32.6163 159.265 32.2256 158.439 31.4442C157.635 30.6411 157.233 29.3713 157.233 27.6349V18.4535H154.496V15.2302H157.233V11.1605H161.405V15.2302H166V18.4535H161.405V27.2442C161.405 28.069 161.579 28.6333 161.926 28.9372C162.296 29.2411 162.839 29.393 163.556 29.393H166V32.6163H162.285Z" fill="white"/>
<defs>
<linearGradient id="paint0_linear_97_40" x1="13.5" y1="0" x2="13.5" y2="42" gradientUnits="userSpaceOnUse">
<stop stop-color="#FFD153"/>
<stop offset="0.671828" stop-color="#FF6900"/>
<stop offset="1" stop-color="#9D3617"/>
</linearGradient>
</defs>
</svg>
